<?xml version="1.0" encoding="UTF-8" standalone="no"?>
<!DOCTYPE svg PUBLIC "-//W3C//DTD SVG 1.1//EN"
 "http://www.w3.org/Graphics/SVG/1.1/DTD/svg11.dtd">
<!-- Generated by graphviz version 13.1.0 (20250701.0955)
 -->
<!-- Title: pcf8591_increment_init Pages: 1 -->
<svg width="302pt" height="506pt"
 viewBox="0.00 0.00 302.00 506.00" xmlns="http://www.w3.org/2000/svg" xmlns:xlink="http://www.w3.org/1999/xlink">
<g id="graph0" class="graph" transform="scale(1 1) rotate(0) translate(4 502)">
<title>pcf8591_increment_init</title>
<!-- Node1 -->
<g id="Node000001" class="node">
<title>Node1</title>
<g id="a_Node000001"><a xlink:title="increment example init">
<polygon fill="#999999" stroke="#666666" points="116.5,-262 0,-262 0,-242 116.5,-242 116.5,-262"/>
<text xml:space="preserve" text-anchor="middle" x="58.25" y="-248.5" font-family="Helvetica,sans-Serif" font-size="10.00">pcf8591_increment_init</text>
</a>
</g>
</g>
<!-- Node2 -->
<g id="Node000002" class="node">
<title>Node2</title>
<g id="a_Node000002"><a xlink:href="group__pcf8591__base__driver.html#gac8910d5e29cfdaf4aba0f9f205ba397f" target="_top" xlink:title="close the chip">
<polygon fill="white" stroke="#666666" points="262.62,-498 183.62,-498 183.62,-478 262.62,-478 262.62,-498"/>
<text xml:space="preserve" text-anchor="middle" x="223.12" y="-484.5" font-family="Helvetica,sans-Serif" font-size="10.00">pcf8591_deinit</text>
</a>
</g>
</g>
<!-- Node1&#45;&gt;Node2 -->
<g id="edge1_Node000001_Node000002" class="edge">
<title>Node1&#45;&gt;Node2</title>
<g id="a_edge1_Node000001_Node000002"><a xlink:title=" ">
<path fill="none" stroke="#63b8ff" d="M60.54,-262.46C65.42,-297.41 85.97,-411.16 152.5,-469 158.28,-474.03 165.27,-477.74 172.57,-480.47"/>
<polygon fill="#63b8ff" stroke="#63b8ff" points="171.33,-483.75 181.92,-483.37 173.4,-477.07 171.33,-483.75"/>
</a>
</g>
</g>
<!-- Node3 -->
<g id="Node000003" class="node">
<title>Node3</title>
<g id="a_Node000003"><a xlink:href="group__pcf8591__base__driver.html#ga2ca386791960303ac6c03097ef504c23" target="_top" xlink:title="initialize the chip">
<polygon fill="white" stroke="#666666" points="257.38,-460 188.88,-460 188.88,-440 257.38,-440 257.38,-460"/>
<text xml:space="preserve" text-anchor="middle" x="223.12" y="-446.5" font-family="Helvetica,sans-Serif" font-size="10.00">pcf8591_init</text>
</a>
</g>
</g>
<!-- Node1&#45;&gt;Node3 -->
<g id="edge2_Node000001_Node000003" class="edge">
<title>Node1&#45;&gt;Node3</title>
<g id="a_edge2_Node000001_Node000003"><a xlink:title=" ">
<path fill="none" stroke="#63b8ff" d="M61.55,-262.35C68.92,-293.09 94.94,-384.6 152.5,-431 159.78,-436.87 168.74,-440.93 177.77,-443.74"/>
<polygon fill="#63b8ff" stroke="#63b8ff" points="176.7,-447.08 187.26,-446.2 178.46,-440.3 176.7,-447.08"/>
</a>
</g>
</g>
<!-- Node4 -->
<g id="Node000004" class="node">
<title>Node4</title>
<g id="a_Node000004"><a xlink:href="group__pcf8591__interface__driver.html#ga6a62514c3088c4e7c450922b75ce226f" target="_top" xlink:title="interface print format data">
<polygon fill="white" stroke="#666666" points="285.5,-422 160.75,-422 160.75,-390 285.5,-390 285.5,-422"/>
<text xml:space="preserve" text-anchor="start" x="168.75" y="-408.5" font-family="Helvetica,sans-Serif" font-size="10.00">pcf8591_interface_debug</text>
<text xml:space="preserve" text-anchor="middle" x="223.12" y="-396.5" font-family="Helvetica,sans-Serif" font-size="10.00">_print</text>
</a>
</g>
</g>
<!-- Node1&#45;&gt;Node4 -->
<g id="edge3_Node000001_Node000004" class="edge">
<title>Node1&#45;&gt;Node4</title>
<g id="a_edge3_Node000001_Node000004"><a xlink:title=" ">
<path fill="none" stroke="#63b8ff" d="M63.99,-262.32C75.62,-286.53 107.89,-347.45 152.5,-381 153.85,-382.01 155.24,-382.99 156.67,-383.93"/>
<polygon fill="#63b8ff" stroke="#63b8ff" points="154.82,-386.9 165.23,-388.84 158.3,-380.83 154.82,-386.9"/>
</a>
</g>
</g>
<!-- Node5 -->
<g id="Node000005" class="node">
<title>Node5</title>
<g id="a_Node000005"><a xlink:href="group__pcf8591__interface__driver.html#ga58bd695f66663b7d2857bd23ef290904" target="_top" xlink:title="interface delay ms">
<polygon fill="white" stroke="#666666" points="293.38,-372 152.88,-372 152.88,-352 293.38,-352 293.38,-372"/>
<text xml:space="preserve" text-anchor="middle" x="223.12" y="-358.5" font-family="Helvetica,sans-Serif" font-size="10.00">pcf8591_interface_delay_ms</text>
</a>
</g>
</g>
<!-- Node1&#45;&gt;Node5 -->
<g id="edge4_Node000001_Node000005" class="edge">
<title>Node1&#45;&gt;Node5</title>
<g id="a_edge4_Node000001_Node000005"><a xlink:title=" ">
<path fill="none" stroke="#63b8ff" d="M66.98,-262.47C81.55,-281.45 115,-321.54 152.5,-343 155.3,-344.6 158.25,-346.08 161.28,-347.43"/>
<polygon fill="#63b8ff" stroke="#63b8ff" points="159.83,-350.62 170.41,-351.03 162.39,-344.11 159.83,-350.62"/>
</a>
</g>
</g>
<!-- Node6 -->
<g id="Node000006" class="node">
<title>Node6</title>
<g id="a_Node000006"><a xlink:href="group__pcf8591__interface__driver.html#gad3fd5e5fbbf68777308c473c6d951a43" target="_top" xlink:title="interface iic bus deinit">
<polygon fill="white" stroke="#666666" points="277.25,-334 169,-334 169,-302 277.25,-302 277.25,-334"/>
<text xml:space="preserve" text-anchor="start" x="177" y="-320.5" font-family="Helvetica,sans-Serif" font-size="10.00">pcf8591_interface_iic</text>
<text xml:space="preserve" text-anchor="middle" x="223.12" y="-308.5" font-family="Helvetica,sans-Serif" font-size="10.00">_deinit</text>
</a>
</g>
</g>
<!-- Node1&#45;&gt;Node6 -->
<g id="edge5_Node000001_Node000006" class="edge">
<title>Node1&#45;&gt;Node6</title>
<g id="a_edge5_Node000001_Node000006"><a xlink:title=" ">
<path fill="none" stroke="#63b8ff" d="M81.68,-262.38C100.45,-270.95 128.02,-283.24 152.5,-293 156.37,-294.54 160.37,-296.09 164.41,-297.63"/>
<polygon fill="#63b8ff" stroke="#63b8ff" points="163.13,-300.89 173.72,-301.1 165.58,-294.33 163.13,-300.89"/>
</a>
</g>
</g>
<!-- Node7 -->
<g id="Node000007" class="node">
<title>Node7</title>
<g id="a_Node000007"><a xlink:href="group__pcf8591__interface__driver.html#ga05a1e87dba937d75d52741310b1de87c" target="_top" xlink:title="interface iic bus init">
<polygon fill="white" stroke="#666666" points="286.25,-284 160,-284 160,-264 286.25,-264 286.25,-284"/>
<text xml:space="preserve" text-anchor="middle" x="223.12" y="-270.5" font-family="Helvetica,sans-Serif" font-size="10.00">pcf8591_interface_iic_init</text>
</a>
</g>
</g>
<!-- Node1&#45;&gt;Node7 -->
<g id="edge6_Node000001_Node000007" class="edge">
<title>Node1&#45;&gt;Node7</title>
<g id="a_edge6_Node000001_Node000007"><a xlink:title=" ">
<path fill="none" stroke="#63b8ff" d="M116.67,-259.76C126.9,-261.14 137.67,-262.59 148.28,-264.03"/>
<polygon fill="#63b8ff" stroke="#63b8ff" points="147.81,-267.49 158.18,-265.36 148.74,-260.56 147.81,-267.49"/>
</a>
</g>
</g>
<!-- Node8 -->
<g id="Node000008" class="node">
<title>Node8</title>
<g id="a_Node000008"><a xlink:href="group__pcf8591__interface__driver.html#gaff6815d178fd1e069a95153e222cd218" target="_top" xlink:title="interface iic bus read command">
<polygon fill="white" stroke="#666666" points="277.25,-246 169,-246 169,-214 277.25,-214 277.25,-246"/>
<text xml:space="preserve" text-anchor="start" x="177" y="-232.5" font-family="Helvetica,sans-Serif" font-size="10.00">pcf8591_interface_iic</text>
<text xml:space="preserve" text-anchor="middle" x="223.12" y="-220.5" font-family="Helvetica,sans-Serif" font-size="10.00">_read_cmd</text>
</a>
</g>
</g>
<!-- Node1&#45;&gt;Node8 -->
<g id="edge7_Node000001_Node000008" class="edge">
<title>Node1&#45;&gt;Node8</title>
<g id="a_edge7_Node000001_Node000008"><a xlink:title=" ">
<path fill="none" stroke="#63b8ff" d="M116.67,-244.24C129.91,-242.46 144.08,-240.54 157.59,-238.72"/>
<polygon fill="#63b8ff" stroke="#63b8ff" points="157.82,-242.22 167.26,-237.41 156.88,-235.28 157.82,-242.22"/>
</a>
</g>
</g>
<!-- Node9 -->
<g id="Node000009" class="node">
<title>Node9</title>
<g id="a_Node000009"><a xlink:href="group__pcf8591__interface__driver.html#gaad10461150bffc15d051545daa681f1e" target="_top" xlink:title="interface iic bus write command">
<polygon fill="white" stroke="#666666" points="277.25,-196 169,-196 169,-164 277.25,-164 277.25,-196"/>
<text xml:space="preserve" text-anchor="start" x="177" y="-182.5" font-family="Helvetica,sans-Serif" font-size="10.00">pcf8591_interface_iic</text>
<text xml:space="preserve" text-anchor="middle" x="223.12" y="-170.5" font-family="Helvetica,sans-Serif" font-size="10.00">_write_cmd</text>
</a>
</g>
</g>
<!-- Node1&#45;&gt;Node9 -->
<g id="edge8_Node000001_Node000009" class="edge">
<title>Node1&#45;&gt;Node9</title>
<g id="a_edge8_Node000001_Node000009"><a xlink:title=" ">
<path fill="none" stroke="#63b8ff" d="M78.21,-241.58C96.83,-231.56 126.18,-216.31 152.5,-205 156.03,-203.48 159.68,-201.98 163.39,-200.51"/>
<polygon fill="#63b8ff" stroke="#63b8ff" points="164.4,-203.87 172.47,-197 161.88,-197.34 164.4,-203.87"/>
</a>
</g>
</g>
<!-- Node10 -->
<g id="Node000010" class="node">
<title>Node10</title>
<g id="a_Node000010"><a xlink:href="group__pcf8591__base__driver.html#ga1b674f6f1a1fc601617b69031c3cefda" target="_top" xlink:title="set the address pin">
<polygon fill="white" stroke="#666666" points="278.75,-146 167.5,-146 167.5,-126 278.75,-126 278.75,-146"/>
<text xml:space="preserve" text-anchor="middle" x="223.12" y="-132.5" font-family="Helvetica,sans-Serif" font-size="10.00">pcf8591_set_addr_pin</text>
</a>
</g>
</g>
<!-- Node1&#45;&gt;Node10 -->
<g id="edge9_Node000001_Node000010" class="edge">
<title>Node1&#45;&gt;Node10</title>
<g id="a_edge9_Node000001_Node000010"><a xlink:title=" ">
<path fill="none" stroke="#63b8ff" d="M66.15,-241.76C80.07,-221.91 113.53,-178.13 152.5,-155 155.09,-153.46 157.8,-152.05 160.6,-150.75"/>
<polygon fill="#63b8ff" stroke="#63b8ff" points="161.65,-154.09 169.59,-147.07 159.01,-147.61 161.65,-154.09"/>
</a>
</g>
</g>
<!-- Node11 -->
<g id="Node000011" class="node">
<title>Node11</title>
<g id="a_Node000011"><a xlink:href="group__pcf8591__base__driver.html#gaf6ae6ea059b986cd30746492a8468a53" target="_top" xlink:title="set the adc auto increment read mode">
<polygon fill="white" stroke="#666666" points="293.75,-108 152.5,-108 152.5,-88 293.75,-88 293.75,-108"/>
<text xml:space="preserve" text-anchor="middle" x="223.12" y="-94.5" font-family="Helvetica,sans-Serif" font-size="10.00">pcf8591_set_auto_increment</text>
</a>
</g>
</g>
<!-- Node1&#45;&gt;Node11 -->
<g id="edge10_Node000001_Node000011" class="edge">
<title>Node1&#45;&gt;Node11</title>
<g id="a_edge10_Node000001_Node000011"><a xlink:title=" ">
<path fill="none" stroke="#63b8ff" d="M63.36,-241.71C74.02,-216.37 105.08,-150.59 152.5,-117 154.42,-115.64 156.43,-114.38 158.51,-113.21"/>
<polygon fill="#63b8ff" stroke="#63b8ff" points="159.77,-116.49 167.28,-109.01 156.75,-110.17 159.77,-116.49"/>
</a>
</g>
</g>
<!-- Node12 -->
<g id="Node000012" class="node">
<title>Node12</title>
<g id="a_Node000012"><a xlink:href="group__pcf8591__base__driver.html#ga58e39aaf064b360541c8a2f62e63c0cf" target="_top" xlink:title="set the adc mode">
<polygon fill="white" stroke="#666666" points="272.38,-70 173.88,-70 173.88,-50 272.38,-50 272.38,-70"/>
<text xml:space="preserve" text-anchor="middle" x="223.12" y="-56.5" font-family="Helvetica,sans-Serif" font-size="10.00">pcf8591_set_mode</text>
</a>
</g>
</g>
<!-- Node1&#45;&gt;Node12 -->
<g id="edge11_Node000001_Node000012" class="edge">
<title>Node1&#45;&gt;Node12</title>
<g id="a_edge11_Node000001_Node000012"><a xlink:title=" ">
<path fill="none" stroke="#63b8ff" d="M61.77,-241.57C69.59,-211.43 96.4,-123.57 152.5,-79 155.78,-76.39 159.4,-74.14 163.2,-72.2"/>
<polygon fill="#63b8ff" stroke="#63b8ff" points="164.41,-75.49 172.22,-68.34 161.65,-69.05 164.41,-75.49"/>
</a>
</g>
</g>
<!-- Node13 -->
<g id="Node000013" class="node">
<title>Node13</title>
<g id="a_Node000013"><a xlink:href="group__pcf8591__base__driver.html#ga66e04d5b655adbdbb4ae475838c44eb7" target="_top" xlink:title="set the adc reference voltage">
<polygon fill="white" stroke="#666666" points="280.62,-32 165.62,-32 165.62,0 280.62,0 280.62,-32"/>
<text xml:space="preserve" text-anchor="start" x="173.62" y="-18.5" font-family="Helvetica,sans-Serif" font-size="10.00">pcf8591_set_reference</text>
<text xml:space="preserve" text-anchor="middle" x="223.12" y="-6.5" font-family="Helvetica,sans-Serif" font-size="10.00">_voltage</text>
</a>
</g>
</g>
<!-- Node1&#45;&gt;Node13 -->
<g id="edge12_Node000001_Node000013" class="edge">
<title>Node1&#45;&gt;Node13</title>
<g id="a_edge12_Node000001_Node000013"><a xlink:title=" ">
<path fill="none" stroke="#63b8ff" d="M60.89,-241.54C66.75,-207.61 89.77,-99.4 152.5,-41 153.58,-39.99 154.71,-39.02 155.88,-38.09"/>
<polygon fill="#63b8ff" stroke="#63b8ff" points="157.82,-41 164.18,-32.53 153.93,-35.19 157.82,-41"/>
</a>
</g>
</g>
</g>
</svg>
