<?xml version="1.0" encoding="UTF-8" standalone="no"?>
<!DOCTYPE svg PUBLIC "-//W3C//DTD SVG 1.1//EN"
 "http://www.w3.org/Graphics/SVG/1.1/DTD/svg11.dtd">
<!-- Generated by graphviz version 13.1.0 (20250701.0955)
 -->
<!-- Title: pcf8591_basic_init Pages: 1 -->
<svg width="282pt" height="506pt"
 viewBox="0.00 0.00 282.00 506.00" xmlns="http://www.w3.org/2000/svg" xmlns:xlink="http://www.w3.org/1999/xlink">
<g id="graph0" class="graph" transform="scale(1 1) rotate(0) translate(4 502)">
<title>pcf8591_basic_init</title>
<!-- Node1 -->
<g id="Node000001" class="node">
<title>Node1</title>
<g id="a_Node000001"><a xlink:title="basic example init">
<polygon fill="#999999" stroke="#666666" points="97,-262 0,-262 0,-242 97,-242 97,-262"/>
<text xml:space="preserve" text-anchor="middle" x="48.5" y="-248.5" font-family="Helvetica,sans-Serif" font-size="10.00">pcf8591_basic_init</text>
</a>
</g>
</g>
<!-- Node2 -->
<g id="Node000002" class="node">
<title>Node2</title>
<g id="a_Node000002"><a xlink:href="group__pcf8591__base__driver.html#gac8910d5e29cfdaf4aba0f9f205ba397f" target="_top" xlink:title="close the chip">
<polygon fill="white" stroke="#666666" points="243.12,-498 164.12,-498 164.12,-478 243.12,-478 243.12,-498"/>
<text xml:space="preserve" text-anchor="middle" x="203.62" y="-484.5" font-family="Helvetica,sans-Serif" font-size="10.00">pcf8591_deinit</text>
</a>
</g>
</g>
<!-- Node1&#45;&gt;Node2 -->
<g id="edge1_Node000001_Node000002" class="edge">
<title>Node1&#45;&gt;Node2</title>
<g id="a_edge1_Node000001_Node000002"><a xlink:title=" ">
<path fill="none" stroke="#63b8ff" d="M50.28,-262.44C53.48,-297.3 68.61,-410.81 133,-469 138.68,-474.14 145.62,-477.9 152.9,-480.66"/>
<polygon fill="#63b8ff" stroke="#63b8ff" points="151.65,-483.94 162.24,-483.57 153.73,-477.26 151.65,-483.94"/>
</a>
</g>
</g>
<!-- Node3 -->
<g id="Node000003" class="node">
<title>Node3</title>
<g id="a_Node000003"><a xlink:href="group__pcf8591__base__driver.html#ga2ca386791960303ac6c03097ef504c23" target="_top" xlink:title="initialize the chip">
<polygon fill="white" stroke="#666666" points="237.88,-460 169.38,-460 169.38,-440 237.88,-440 237.88,-460"/>
<text xml:space="preserve" text-anchor="middle" x="203.62" y="-446.5" font-family="Helvetica,sans-Serif" font-size="10.00">pcf8591_init</text>
</a>
</g>
</g>
<!-- Node1&#45;&gt;Node3 -->
<g id="edge2_Node000001_Node000003" class="edge">
<title>Node1&#45;&gt;Node3</title>
<g id="a_edge2_Node000001_Node000003"><a xlink:title=" ">
<path fill="none" stroke="#63b8ff" d="M51.2,-262.33C56.83,-293 77.68,-384.37 133,-431 140.15,-437.03 149.05,-441.16 158.07,-443.98"/>
<polygon fill="#63b8ff" stroke="#63b8ff" points="157.01,-447.32 167.56,-446.44 158.76,-440.54 157.01,-447.32"/>
</a>
</g>
</g>
<!-- Node4 -->
<g id="Node000004" class="node">
<title>Node4</title>
<g id="a_Node000004"><a xlink:href="group__pcf8591__interface__driver.html#ga6a62514c3088c4e7c450922b75ce226f" target="_top" xlink:title="interface print format data">
<polygon fill="white" stroke="#666666" points="266,-422 141.25,-422 141.25,-390 266,-390 266,-422"/>
<text xml:space="preserve" text-anchor="start" x="149.25" y="-408.5" font-family="Helvetica,sans-Serif" font-size="10.00">pcf8591_interface_debug</text>
<text xml:space="preserve" text-anchor="middle" x="203.62" y="-396.5" font-family="Helvetica,sans-Serif" font-size="10.00">_print</text>
</a>
</g>
</g>
<!-- Node1&#45;&gt;Node4 -->
<g id="edge3_Node000001_Node000004" class="edge">
<title>Node1&#45;&gt;Node4</title>
<g id="a_edge3_Node000001_Node000004"><a xlink:title=" ">
<path fill="none" stroke="#63b8ff" d="M53.44,-262.33C63.2,-286.55 90.78,-347.51 133,-381 134.29,-382.02 135.62,-383.01 137,-383.95"/>
<polygon fill="#63b8ff" stroke="#63b8ff" points="134.84,-386.74 145.22,-388.87 138.43,-380.73 134.84,-386.74"/>
</a>
</g>
</g>
<!-- Node5 -->
<g id="Node000005" class="node">
<title>Node5</title>
<g id="a_Node000005"><a xlink:href="group__pcf8591__interface__driver.html#ga58bd695f66663b7d2857bd23ef290904" target="_top" xlink:title="interface delay ms">
<polygon fill="white" stroke="#666666" points="273.88,-372 133.38,-372 133.38,-352 273.88,-352 273.88,-372"/>
<text xml:space="preserve" text-anchor="middle" x="203.62" y="-358.5" font-family="Helvetica,sans-Serif" font-size="10.00">pcf8591_interface_delay_ms</text>
</a>
</g>
</g>
<!-- Node1&#45;&gt;Node5 -->
<g id="edge4_Node000001_Node000005" class="edge">
<title>Node1&#45;&gt;Node5</title>
<g id="a_edge4_Node000001_Node000005"><a xlink:title=" ">
<path fill="none" stroke="#63b8ff" d="M56.15,-262.5C68.76,-281.52 98.03,-321.69 133,-343 135.57,-344.57 138.27,-346.01 141.05,-347.33"/>
<polygon fill="#63b8ff" stroke="#63b8ff" points="139.44,-350.45 150.02,-351.05 142.12,-343.98 139.44,-350.45"/>
</a>
</g>
</g>
<!-- Node6 -->
<g id="Node000006" class="node">
<title>Node6</title>
<g id="a_Node000006"><a xlink:href="group__pcf8591__interface__driver.html#gad3fd5e5fbbf68777308c473c6d951a43" target="_top" xlink:title="interface iic bus deinit">
<polygon fill="white" stroke="#666666" points="257.75,-334 149.5,-334 149.5,-302 257.75,-302 257.75,-334"/>
<text xml:space="preserve" text-anchor="start" x="157.5" y="-320.5" font-family="Helvetica,sans-Serif" font-size="10.00">pcf8591_interface_iic</text>
<text xml:space="preserve" text-anchor="middle" x="203.62" y="-308.5" font-family="Helvetica,sans-Serif" font-size="10.00">_deinit</text>
</a>
</g>
</g>
<!-- Node1&#45;&gt;Node6 -->
<g id="edge5_Node000001_Node000006" class="edge">
<title>Node1&#45;&gt;Node6</title>
<g id="a_edge5_Node000001_Node000006"><a xlink:title=" ">
<path fill="none" stroke="#63b8ff" d="M69.12,-262.41C85.86,-271.1 110.69,-283.55 133,-293 136.6,-294.52 140.32,-296.04 144.1,-297.52"/>
<polygon fill="#63b8ff" stroke="#63b8ff" points="142.78,-300.77 153.37,-301.08 145.29,-294.23 142.78,-300.77"/>
</a>
</g>
</g>
<!-- Node7 -->
<g id="Node000007" class="node">
<title>Node7</title>
<g id="a_Node000007"><a xlink:href="group__pcf8591__interface__driver.html#ga05a1e87dba937d75d52741310b1de87c" target="_top" xlink:title="interface iic bus init">
<polygon fill="white" stroke="#666666" points="266.75,-284 140.5,-284 140.5,-264 266.75,-264 266.75,-284"/>
<text xml:space="preserve" text-anchor="middle" x="203.62" y="-270.5" font-family="Helvetica,sans-Serif" font-size="10.00">pcf8591_interface_iic_init</text>
</a>
</g>
</g>
<!-- Node1&#45;&gt;Node7 -->
<g id="edge6_Node000001_Node000007" class="edge">
<title>Node1&#45;&gt;Node7</title>
<g id="a_edge6_Node000001_Node000007"><a xlink:title=" ">
<path fill="none" stroke="#63b8ff" d="M97.11,-258.84C107.21,-260.29 118.1,-261.86 128.91,-263.41"/>
<polygon fill="#63b8ff" stroke="#63b8ff" points="128.22,-266.85 138.62,-264.8 129.21,-259.92 128.22,-266.85"/>
</a>
</g>
</g>
<!-- Node8 -->
<g id="Node000008" class="node">
<title>Node8</title>
<g id="a_Node000008"><a xlink:href="group__pcf8591__interface__driver.html#gaff6815d178fd1e069a95153e222cd218" target="_top" xlink:title="interface iic bus read command">
<polygon fill="white" stroke="#666666" points="257.75,-246 149.5,-246 149.5,-214 257.75,-214 257.75,-246"/>
<text xml:space="preserve" text-anchor="start" x="157.5" y="-232.5" font-family="Helvetica,sans-Serif" font-size="10.00">pcf8591_interface_iic</text>
<text xml:space="preserve" text-anchor="middle" x="203.62" y="-220.5" font-family="Helvetica,sans-Serif" font-size="10.00">_read_cmd</text>
</a>
</g>
</g>
<!-- Node1&#45;&gt;Node8 -->
<g id="edge7_Node000001_Node000008" class="edge">
<title>Node1&#45;&gt;Node8</title>
<g id="a_edge7_Node000001_Node000008"><a xlink:title=" ">
<path fill="none" stroke="#63b8ff" d="M97.11,-245.16C110,-243.31 124.18,-241.27 137.85,-239.31"/>
<polygon fill="#63b8ff" stroke="#63b8ff" points="138.27,-242.78 147.67,-237.9 137.28,-235.85 138.27,-242.78"/>
</a>
</g>
</g>
<!-- Node9 -->
<g id="Node000009" class="node">
<title>Node9</title>
<g id="a_Node000009"><a xlink:href="group__pcf8591__interface__driver.html#gaad10461150bffc15d051545daa681f1e" target="_top" xlink:title="interface iic bus write command">
<polygon fill="white" stroke="#666666" points="257.75,-196 149.5,-196 149.5,-164 257.75,-164 257.75,-196"/>
<text xml:space="preserve" text-anchor="start" x="157.5" y="-182.5" font-family="Helvetica,sans-Serif" font-size="10.00">pcf8591_interface_iic</text>
<text xml:space="preserve" text-anchor="middle" x="203.62" y="-170.5" font-family="Helvetica,sans-Serif" font-size="10.00">_write_cmd</text>
</a>
</g>
</g>
<!-- Node1&#45;&gt;Node9 -->
<g id="edge8_Node000001_Node000009" class="edge">
<title>Node1&#45;&gt;Node9</title>
<g id="a_edge8_Node000001_Node000009"><a xlink:title=" ">
<path fill="none" stroke="#63b8ff" d="M66.02,-241.61C82.56,-231.46 108.94,-215.99 133,-205 136.27,-203.51 139.66,-202.04 143.1,-200.61"/>
<polygon fill="#63b8ff" stroke="#63b8ff" points="144.12,-203.97 152.11,-197.02 141.52,-197.47 144.12,-203.97"/>
</a>
</g>
</g>
<!-- Node10 -->
<g id="Node000010" class="node">
<title>Node10</title>
<g id="a_Node000010"><a xlink:href="group__pcf8591__base__driver.html#ga1b674f6f1a1fc601617b69031c3cefda" target="_top" xlink:title="set the address pin">
<polygon fill="white" stroke="#666666" points="259.25,-146 148,-146 148,-126 259.25,-126 259.25,-146"/>
<text xml:space="preserve" text-anchor="middle" x="203.62" y="-132.5" font-family="Helvetica,sans-Serif" font-size="10.00">pcf8591_set_addr_pin</text>
</a>
</g>
</g>
<!-- Node1&#45;&gt;Node10 -->
<g id="edge9_Node000001_Node000010" class="edge">
<title>Node1&#45;&gt;Node10</title>
<g id="a_edge9_Node000001_Node000010"><a xlink:title=" ">
<path fill="none" stroke="#63b8ff" d="M55.41,-241.74C67.39,-221.85 96.55,-178.02 133,-155 135.28,-153.56 137.67,-152.23 140.13,-151"/>
<polygon fill="#63b8ff" stroke="#63b8ff" points="141.41,-154.26 149.19,-147.08 138.63,-147.83 141.41,-154.26"/>
</a>
</g>
</g>
<!-- Node11 -->
<g id="Node000011" class="node">
<title>Node11</title>
<g id="a_Node000011"><a xlink:href="group__pcf8591__base__driver.html#gaf6ae6ea059b986cd30746492a8468a53" target="_top" xlink:title="set the adc auto increment read mode">
<polygon fill="white" stroke="#666666" points="274.25,-108 133,-108 133,-88 274.25,-88 274.25,-108"/>
<text xml:space="preserve" text-anchor="middle" x="203.62" y="-94.5" font-family="Helvetica,sans-Serif" font-size="10.00">pcf8591_set_auto_increment</text>
</a>
</g>
</g>
<!-- Node1&#45;&gt;Node11 -->
<g id="edge10_Node000001_Node000011" class="edge">
<title>Node1&#45;&gt;Node11</title>
<g id="a_edge10_Node000001_Node000011"><a xlink:title=" ">
<path fill="none" stroke="#63b8ff" d="M52.86,-241.72C61.68,-216.4 87.96,-150.65 133,-117 134.73,-115.71 136.55,-114.5 138.42,-113.38"/>
<polygon fill="#63b8ff" stroke="#63b8ff" points="139.55,-116.73 146.91,-109.1 136.4,-110.48 139.55,-116.73"/>
</a>
</g>
</g>
<!-- Node12 -->
<g id="Node000012" class="node">
<title>Node12</title>
<g id="a_Node000012"><a xlink:href="group__pcf8591__base__driver.html#ga58e39aaf064b360541c8a2f62e63c0cf" target="_top" xlink:title="set the adc mode">
<polygon fill="white" stroke="#666666" points="252.88,-70 154.38,-70 154.38,-50 252.88,-50 252.88,-70"/>
<text xml:space="preserve" text-anchor="middle" x="203.62" y="-56.5" font-family="Helvetica,sans-Serif" font-size="10.00">pcf8591_set_mode</text>
</a>
</g>
</g>
<!-- Node1&#45;&gt;Node12 -->
<g id="edge11_Node000001_Node000012" class="edge">
<title>Node1&#45;&gt;Node12</title>
<g id="a_edge11_Node000001_Node000012"><a xlink:title=" ">
<path fill="none" stroke="#63b8ff" d="M51.4,-241.59C57.46,-211.51 79.15,-123.78 133,-79 136.22,-76.32 139.8,-74.01 143.57,-72.03"/>
<polygon fill="#63b8ff" stroke="#63b8ff" points="144.77,-75.32 152.54,-68.11 141.97,-68.91 144.77,-75.32"/>
</a>
</g>
</g>
<!-- Node13 -->
<g id="Node000013" class="node">
<title>Node13</title>
<g id="a_Node000013"><a xlink:href="group__pcf8591__base__driver.html#ga66e04d5b655adbdbb4ae475838c44eb7" target="_top" xlink:title="set the adc reference voltage">
<polygon fill="white" stroke="#666666" points="261.12,-32 146.12,-32 146.12,0 261.12,0 261.12,-32"/>
<text xml:space="preserve" text-anchor="start" x="154.12" y="-18.5" font-family="Helvetica,sans-Serif" font-size="10.00">pcf8591_set_reference</text>
<text xml:space="preserve" text-anchor="middle" x="203.62" y="-6.5" font-family="Helvetica,sans-Serif" font-size="10.00">_voltage</text>
</a>
</g>
</g>
<!-- Node1&#45;&gt;Node13 -->
<g id="edge12_Node000001_Node000013" class="edge">
<title>Node1&#45;&gt;Node13</title>
<g id="a_edge12_Node000001_Node000013"><a xlink:title=" ">
<path fill="none" stroke="#63b8ff" d="M50.61,-241.56C54.78,-207.69 72.44,-99.65 133,-41 134.06,-39.97 135.17,-38.98 136.32,-38.03"/>
<polygon fill="#63b8ff" stroke="#63b8ff" points="138.28,-40.93 144.54,-32.39 134.32,-35.16 138.28,-40.93"/>
</a>
</g>
</g>
</g>
</svg>
