<?xml version="1.0" encoding="UTF-8" standalone="no"?>
<!DOCTYPE svg PUBLIC "-//W3C//DTD SVG 1.1//EN"
 "http://www.w3.org/Graphics/SVG/1.1/DTD/svg11.dtd">
<!-- Generated by graphviz version 13.1.0 (20250701.0955)
 -->
<!-- Title: pcf8591_increment_write Pages: 1 -->
<svg width="278pt" height="78pt"
 viewBox="0.00 0.00 278.00 78.00" xmlns="http://www.w3.org/2000/svg" xmlns:xlink="http://www.w3.org/1999/xlink">
<g id="graph0" class="graph" transform="scale(1 1) rotate(0) translate(4 74)">
<title>pcf8591_increment_write</title>
<!-- Node1 -->
<g id="Node000001" class="node">
<title>Node1</title>
<g id="a_Node000001"><a xlink:title="increment example write the dac">
<polygon fill="#999999" stroke="#666666" points="124.75,-42 0,-42 0,-22 124.75,-22 124.75,-42"/>
<text xml:space="preserve" text-anchor="middle" x="62.38" y="-28.5" font-family="Helvetica,sans-Serif" font-size="10.00">pcf8591_increment_write</text>
</a>
</g>
</g>
<!-- Node2 -->
<g id="Node000002" class="node">
<title>Node2</title>
<g id="a_Node000002"><a xlink:href="group__pcf8591__base__driver.html#ga020ba9f4bcaf91a966fa79502aec4cac" target="_top" xlink:title="convert a dac value to a register raw data">
<polygon fill="white" stroke="#666666" points="269.75,-70 160.75,-70 160.75,-38 269.75,-38 269.75,-70"/>
<text xml:space="preserve" text-anchor="start" x="168.75" y="-56.5" font-family="Helvetica,sans-Serif" font-size="10.00">pcf8591_dac_convert</text>
<text xml:space="preserve" text-anchor="middle" x="215.25" y="-44.5" font-family="Helvetica,sans-Serif" font-size="10.00">_to_register</text>
</a>
</g>
</g>
<!-- Node1&#45;&gt;Node2 -->
<g id="edge1_Node000001_Node000002" class="edge">
<title>Node1&#45;&gt;Node2</title>
<g id="a_edge1_Node000001_Node000002"><a xlink:title=" ">
<path fill="none" stroke="#63b8ff" d="M125.18,-41.01C133.14,-42.17 141.32,-43.37 149.33,-44.53"/>
<polygon fill="#63b8ff" stroke="#63b8ff" points="148.61,-47.97 159.01,-45.95 149.62,-41.04 148.61,-47.97"/>
</a>
</g>
</g>
<!-- Node3 -->
<g id="Node000003" class="node">
<title>Node3</title>
<g id="a_Node000003"><a xlink:href="group__pcf8591__base__driver.html#ga1d6327acfcb231d13be82950c1c65077" target="_top" xlink:title="write to the dac">
<polygon fill="white" stroke="#666666" points="253.62,-20 176.88,-20 176.88,0 253.62,0 253.62,-20"/>
<text xml:space="preserve" text-anchor="middle" x="215.25" y="-6.5" font-family="Helvetica,sans-Serif" font-size="10.00">pcf8591_write</text>
</a>
</g>
</g>
<!-- Node1&#45;&gt;Node3 -->
<g id="edge2_Node000001_Node000003" class="edge">
<title>Node1&#45;&gt;Node3</title>
<g id="a_edge2_Node000001_Node000003"><a xlink:title=" ">
<path fill="none" stroke="#63b8ff" d="M125.18,-22.99C138.51,-21.04 152.43,-19.01 165.2,-17.15"/>
<polygon fill="#63b8ff" stroke="#63b8ff" points="165.66,-20.62 175.05,-15.72 164.65,-13.7 165.66,-20.62"/>
</a>
</g>
</g>
</g>
</svg>
