<?xml version="1.0" encoding="UTF-8" standalone="no"?>
<!DOCTYPE svg PUBLIC "-//W3C//DTD SVG 1.1//EN"
 "http://www.w3.org/Graphics/SVG/1.1/DTD/svg11.dtd">
<!-- Generated by graphviz version 13.1.0 (20250701.0955)
 -->
<!-- Title: pcf8591_basic_write Pages: 1 -->
<svg width="258pt" height="78pt"
 viewBox="0.00 0.00 258.00 78.00" xmlns="http://www.w3.org/2000/svg" xmlns:xlink="http://www.w3.org/1999/xlink">
<g id="graph0" class="graph" transform="scale(1 1) rotate(0) translate(4 74)">
<title>pcf8591_basic_write</title>
<!-- Node1 -->
<g id="Node000001" class="node">
<title>Node1</title>
<g id="a_Node000001"><a xlink:title="basic example write the dac">
<polygon fill="#999999" stroke="#666666" points="105.25,-42 0,-42 0,-22 105.25,-22 105.25,-42"/>
<text xml:space="preserve" text-anchor="middle" x="52.62" y="-28.5" font-family="Helvetica,sans-Serif" font-size="10.00">pcf8591_basic_write</text>
</a>
</g>
</g>
<!-- Node2 -->
<g id="Node000002" class="node">
<title>Node2</title>
<g id="a_Node000002"><a xlink:href="group__pcf8591__base__driver.html#ga020ba9f4bcaf91a966fa79502aec4cac" target="_top" xlink:title="convert a dac value to a register raw data">
<polygon fill="white" stroke="#666666" points="250.25,-70 141.25,-70 141.25,-38 250.25,-38 250.25,-70"/>
<text xml:space="preserve" text-anchor="start" x="149.25" y="-56.5" font-family="Helvetica,sans-Serif" font-size="10.00">pcf8591_dac_convert</text>
<text xml:space="preserve" text-anchor="middle" x="195.75" y="-44.5" font-family="Helvetica,sans-Serif" font-size="10.00">_to_register</text>
</a>
</g>
</g>
<!-- Node1&#45;&gt;Node2 -->
<g id="edge1_Node000001_Node000002" class="edge">
<title>Node1&#45;&gt;Node2</title>
<g id="a_edge1_Node000001_Node000002"><a xlink:title=" ">
<path fill="none" stroke="#63b8ff" d="M105.37,-40.07C113.38,-41.31 121.73,-42.62 129.98,-43.9"/>
<polygon fill="#63b8ff" stroke="#63b8ff" points="129.2,-47.32 139.62,-45.41 130.28,-40.41 129.2,-47.32"/>
</a>
</g>
</g>
<!-- Node3 -->
<g id="Node000003" class="node">
<title>Node3</title>
<g id="a_Node000003"><a xlink:href="group__pcf8591__base__driver.html#ga1d6327acfcb231d13be82950c1c65077" target="_top" xlink:title="write to the dac">
<polygon fill="white" stroke="#666666" points="234.12,-20 157.38,-20 157.38,0 234.12,0 234.12,-20"/>
<text xml:space="preserve" text-anchor="middle" x="195.75" y="-6.5" font-family="Helvetica,sans-Serif" font-size="10.00">pcf8591_write</text>
</a>
</g>
</g>
<!-- Node1&#45;&gt;Node3 -->
<g id="edge2_Node000001_Node000003" class="edge">
<title>Node1&#45;&gt;Node3</title>
<g id="a_edge2_Node000001_Node000003"><a xlink:title=" ">
<path fill="none" stroke="#63b8ff" d="M105.37,-23.93C118.64,-21.87 132.86,-19.65 145.97,-17.6"/>
<polygon fill="#63b8ff" stroke="#63b8ff" points="146.31,-21.09 155.65,-16.09 145.23,-14.18 146.31,-21.09"/>
</a>
</g>
</g>
</g>
</svg>
